<svg width="19" height="15" viewBox="0 0 19 15" fill="none" xmlns="http://www.w3.org/2000/svg">
<path d="M5.91769 7.50418C7.15606 7.50418 8.16366 6.26474 8.16366 4.74141C8.16366 3.21809 7.15606 1.97864 5.91769 1.97864C4.67932 1.97864 3.67172 3.21809 3.67172 4.74141C3.67172 6.26474 4.67932 7.50418 5.91769 7.50418ZM15.8 3.08375H9.51124C9.26306 3.08375 9.06205 3.33102 9.06205 3.63631V8.60929H2.77334V1.42609C2.77334 1.1208 2.57232 0.873535 2.32414 0.873535H1.42576C1.17758 0.873535 0.976562 1.1208 0.976562 1.42609V13.5823C0.976562 13.8876 1.17758 14.1348 1.42576 14.1348H2.32414C2.57232 14.1348 2.77334 13.8876 2.77334 13.5823V11.9246H17.1475V13.5823C17.1475 13.8876 17.3485 14.1348 17.5967 14.1348H18.4951C18.7433 14.1348 18.9443 13.8876 18.9443 13.5823V6.95163C18.9443 4.81532 17.5366 3.08375 15.8 3.08375Z" fill="#DC2751"/>
</svg>
