<svg width="50" height="43" viewBox="0 0 50 43" fill="none" xmlns="http://www.w3.org/2000/svg">
<path d="M50 21.5C50 33.3742 38.8072 43 25 43C11.1928 43 0 33.3742 0 21.5C0 9.62589 11.1928 4.57764e-05 25 4.57764e-05C38.8072 4.57764e-05 50 9.62589 50 21.5ZM35.7207 18.4372C36.2183 15.5764 33.6853 14.0384 30.2217 13.0125L31.3453 9.13711L28.602 8.54924L27.5082 12.3225C26.787 12.1679 26.0463 12.0222 25.3103 11.8778L26.412 8.07971L23.6703 7.49184L22.546 11.3658C21.949 11.2489 21.363 11.1333 20.7943 11.0118L20.7974 10.9996L17.0141 10.1873L16.2844 12.7068C16.2844 12.7068 18.3198 13.1079 18.2768 13.1327C19.3879 13.3712 19.5887 14.0035 19.555 14.5047L18.2752 18.9195C18.3518 18.9363 18.451 18.9605 18.5604 18.9982C18.469 18.9787 18.3713 18.9572 18.2705 18.9363L16.4765 25.1209C16.3405 25.4111 15.996 25.8465 15.2194 25.6813C15.2467 25.7155 13.2254 25.2533 13.2254 25.2533L11.8635 27.9535L15.4335 28.7188C16.0976 28.8619 16.7485 29.0117 17.3891 29.1527L16.2538 33.0724L18.994 33.6603L20.1182 29.7822C20.8449 29.9516 21.5737 30.1142 22.3044 30.2701L21.184 34.1299L23.9272 34.7178L25.0625 30.8055C29.7403 31.5667 33.258 31.2597 34.7385 27.6215C35.9317 24.6921 34.6791 23.0024 32.2179 21.9005C34.0103 21.5452 35.3605 20.5314 35.7207 18.4372ZM29.4528 25.995C28.605 28.9244 22.8694 27.3408 21.0098 26.9437L22.5162 21.7509C24.3757 22.1499 30.3388 22.94 29.4528 25.995ZM30.3013 18.3949C29.5278 21.0595 24.7538 19.7057 23.2052 19.3738L24.571 14.664C26.1197 14.9959 31.1069 15.6153 30.3013 18.3949Z" fill="#DC2751"/>
</svg>
