<svg width="9" height="13" viewBox="0 0 9 13" fill="none" xmlns="http://www.w3.org/2000/svg">
<path d="M3.88442 12.3645C0.608139 7.17295 0 6.64014 0 4.73216C0 2.11865 1.93831 0 4.32935 0C6.7204 0 8.65871 2.11865 8.65871 4.73216C8.65871 6.64014 8.05057 7.17295 4.77428 12.3645C4.55928 12.704 4.0994 12.704 3.88442 12.3645ZM4.32935 6.7039C5.32562 6.7039 6.13325 5.82113 6.13325 4.73216C6.13325 3.6432 5.32562 2.76043 4.32935 2.76043C3.33308 2.76043 2.52546 3.6432 2.52546 4.73216C2.52546 5.82113 3.33308 6.7039 4.32935 6.7039Z" fill="#DC2751"/>
</svg>
